<?xml version="1.0" encoding="utf-8"?>
<!-- Generator: Adobe Illustrator 20.1.0, SVG Export Plug-In . SVG Version: 6.00 Build 0)  -->
<svg version="1.1"
	 id="svg2" inkscape:version="0.91 r13725" sodipodi:docname="logo-onu.svg" xmlns:cc="http://creativecommons.org/ns#" xmlns:dc="http://purl.org/dc/elements/1.1/" xmlns:inkscape="http://www.inkscape.org/namespaces/inkscape" xmlns:rdf="http://www.w3.org/1999/02/22-rdf-syntax-ns#" xmlns:sodipodi="http://sodipodi.sourceforge.net/DTD/sodipodi-0.dtd" xmlns:svg="http://www.w3.org/2000/svg"
	 xmlns="http://www.w3.org/2000/svg" xmlns:xlink="http://www.w3.org/1999/xlink" x="0px" y="0px" viewBox="0 0 200 200"
	 style="enable-background:new 0 0 200 200;" xml:space="preserve">
<style type="text/css">
	.st0{fill:#3A3973;}
	.st1{fill:#2B817A;}
</style>
<sodipodi:namedview  bordercolor="#666666" borderopacity="1" gridtolerance="10" guidetolerance="10" id="namedview4" inkscape:current-layer="g24-5-4" inkscape:cx="297.06866" inkscape:cy="554.68901" inkscape:pageopacity="0" inkscape:pageshadow="2" inkscape:window-height="1018" inkscape:window-maximized="1" inkscape:window-width="1920" inkscape:window-x="-8" inkscape:window-y="-8" inkscape:zoom="2.8284271" objecttolerance="10" pagecolor="#ffffff" showgrid="false">
	</sodipodi:namedview>
<g id="g14">
	<g id="g20" transform="translate(222.5837,499.5698)">
		<path id="path22" inkscape:connector-curvature="0" class="st0" d="M-185.5-420.5c0-3.8-0.2-6.3-0.7-7.4c-0.5-1.1-1.5-1.6-3.1-1.6
			c-1.3,0-2.3,0.4-3,1.3c-0.7,0.9-1.1,3.4-1.1,7.7v38.6c0,4.8,0.2,7.8,0.7,8.9c0.5,1.1,1.5,1.7,3.2,1.7c1.7,0,2.8-0.6,3.3-1.9
			c0.5-1.3,0.7-4.4,0.7-9.2V-420.5z M-160.3-393.4c0,8.3-0.2,14.2-0.7,17.6c-0.5,3.4-1.9,6.6-4.3,9.5c-2.4,2.9-5.7,5.1-9.8,6.6
			c-4.1,1.5-8.9,2.3-14.4,2.3c-5.2,0-9.9-0.7-14-2.2c-4.1-1.4-7.5-3.6-10-6.5c-2.5-2.9-4-6-4.5-9.4c-0.5-3.4-0.7-9.4-0.7-17.9v-14.1
			c0-8.3,0.2-14.2,0.7-17.6c0.5-3.4,1.9-6.6,4.3-9.5c2.4-2.9,5.7-5,9.8-6.6c4.1-1.5,8.9-2.3,14.4-2.3c5.2,0,9.9,0.7,14,2.2
			c4.1,1.4,7.5,3.6,10,6.5c2.5,2.9,4,6,4.5,9.4c0.5,3.4,0.7,9.4,0.7,17.9C-160.3-407.5-160.3-393.4-160.3-393.4z"/>
	</g>
	<g id="g24" transform="translate(319.8833,522.0971)">
		<path id="path26" inkscape:connector-curvature="0" class="st0" d="M-191.7-464.3v82.6h-22.1l-13.1-37.5v37.5h-21.1v-82.6h21.1
			l14.2,37.2v-37.2H-191.7z"/>
	</g>
	<g id="g28" transform="translate(392.057,522.0971)">
		<path id="path30" inkscape:connector-curvature="0" class="st0" d="M-196.3-464.3v55.2c0,6.3-0.2,10.7-0.7,13.2
			c-0.5,2.5-1.9,5.1-4.3,7.8c-2.4,2.7-5.5,4.7-9.3,6.1c-3.9,1.4-8.4,2.1-13.7,2.1c-5.8,0-10.9-0.8-15.4-2.4c-4.4-1.6-7.8-3.8-10-6.4
			c-2.2-2.6-3.5-5.4-3.9-8.3c-0.4-2.9-0.6-9-0.6-18.3v-48.9h25.3v61.9c0,3.6,0.2,5.9,0.7,6.9c0.5,1,1.4,1.5,2.8,1.5
			c1.6,0,2.6-0.6,3.1-1.7c0.5-1.1,0.7-3.7,0.7-7.8l0-60.8H-196.3z"/>
	</g>
	<path id="path32" inkscape:connector-curvature="0" class="st1" d="M200,47.8H0V15.5h200V47.8z"/>
	<path id="path34" inkscape:connector-curvature="0" class="st1" d="M200,184H0v-32.2h200V184z"/>
</g>
</svg>
